<svg t="1749499175364" class="icon" viewBox="0 0 1024 1024" version="1.1"
    xmlns="http://www.w3.org/2000/svg" p-id="3444" width="64" height="64">
    <path d="M628.992 528.96c89.984 28.032 161.984 78.08 216 150.08 54.016 72 81.664 154.944 83.008 248.96h-832c1.344-94.016 28.992-176.96 83.008-248.96 54.016-72 126.016-122.048 216-150.08L512 704l116.992-175.04zM720 304c-1.344 58.688-21.696 107.648-60.992 147.008-39.296 39.36-88.32 59.648-147.008 60.992-58.688-1.344-107.648-21.696-147.008-60.992-39.36-39.296-59.648-88.32-60.992-147.008 1.344-58.688 21.696-107.648 60.992-147.008 39.296-39.36 88.32-59.648 147.008-60.992 58.688 1.344 107.648 21.696 147.008 60.992 39.36 39.296 59.648 88.32 60.992 147.008z" p-id="3445" fill="#8a8a8a"></path>
</svg>