<svg t="1749328793367" class="icon" viewBox="0 0 1024 1024" version="1.1"
  xmlns="http://www.w3.org/2000/svg" p-id="1562" width="64" height="64">
  <path d="M511.641331 64.181765c122.063033 0 221.031069 96.439446 221.031069 215.421304 0 118.966509-98.968036 215.429491-221.031069 215.429491-122.094756 0-221.047442-96.462982-221.047442-215.429491C290.593889 160.622234 389.546575 64.181765 511.641331 64.181765L511.641331 64.181765zM758.329756 561.315172 585.328587 561.315172l-73.687256 397.677255c1.765203 0.028653 3.526313 0.060375 5.243421 0.060375 125.82573 0 409.231405-66.289776 409.231405-66.289776C953.704492 863.752296 853.411275 561.315172 758.329756 561.315172L758.329756 561.315172zM275.380396 561.315172c-95.067192 0-205.817576 306.572304-167.756725 331.446831 0 0 275.697109 64.48364 404.003334 66.230424l-73.67293-397.677255C360.865349 561.315172 275.380396 561.315172 275.380396 561.315172L275.380396 561.315172zM511.641331 959.052802l0-0.060375-0.01535 0L511.641331 959.052802zM511.641331 959.052802" fill="#666" p-id="1563"></path>
</svg>