<svg t="1749328969060" class="icon" viewBox="0 0 1024 1024" version="1.1"
    xmlns="http://www.w3.org/2000/svg" p-id="6940" width="64" height="64">
    <path d="M242.5 504c10.3 0 18.7-8.4 18.7-18.6V89.5c0-10.3-8.4-18.7-18.7-18.7-10.3 0-18.6 8.4-18.6 18.7v395.8c0 10.3 8.3 18.7 18.6 18.7zM382 343.1c10.3 0 18.7-8.4 18.7-18.7V89.5c0-10.3-8.4-18.7-18.7-18.7-10.3 0-18.7 8.4-18.7 18.7v234.9c0.1 10.3 8.4 18.7 18.7 18.7zM521.6 422.3c10.3 0 18.7-8.4 18.7-18.7V89.5c0-10.3-8.4-18.7-18.7-18.7-10.3 0-18.7 8.4-18.7 18.7v314.1c0 10.3 8.3 18.7 18.7 18.7zM661.1 252.7c10.3 0 18.6-8.4 18.6-18.7V89.5c0-10.3-8.3-18.7-18.6-18.7s-18.7 8.4-18.7 18.7v144.6c0 10.3 8.4 18.6 18.7 18.6z" fill="#4F4F4F" p-id="6941"></path>
    <path d="M940.1 328.9c-10.3 0-18.6 8.4-18.6 18.7v551H819.2V473c0-10.3-8.3-18.6-18.6-18.6s-18.7 8.3-18.7 18.6v425.6H679.7V670.5c0-10.3-8.3-18.7-18.6-18.7s-18.7 8.4-18.7 18.7v228.1H540.2V761.3c0-10.3-8.4-18.7-18.7-18.7-10.3 0-18.7 8.4-18.7 18.7v137.3H400.7V729.1c0-10.3-8.4-18.7-18.7-18.7-10.3 0-18.7 8.4-18.7 18.7v169.5H261.2v-18c0-10.3-8.4-18.6-18.7-18.6-10.3 0-18.6 8.3-18.6 18.6v18h-79.5L393 534.5l144.5 90.2c12.6 7.9 29.2 4.5 37.8-7.7l311.8-446.1 12.6 65.7c2.6 13.4 14.3 22.7 27.5 22.7 1.7 0 3.5-0.2 5.3-0.5 15.2-2.9 25.1-17.5 22.2-32.7L930 97.5c-1.4-7.3-5.6-13.7-11.8-17.9-6.1-4.2-13.7-5.7-21-4.3L768.6 99.8c-15.2 2.9-25.1 17.6-22.2 32.7 2.9 15.2 17.5 25.2 32.7 22.2l58.8-11.3-293.3 419.8-144.7-90.3c-12.7-8-29.5-4.4-37.9 7.9L119.3 836V101.4c0-15.5-12.5-28-28-28s-28 12.5-28 28v825.2c0 0.4 0.1 0.7 0.1 1 0.1 1.5 0.2 2.9 0.4 4.4 0.2 0.8 0.5 1.6 0.7 2.4 0.3 0.9 0.5 1.9 0.9 2.8 0.3 0.8 0.8 1.6 1.2 2.3 0.4 0.8 0.8 1.7 1.3 2.5 0.5 0.7 1.1 1.4 1.7 2.1 0.6 0.7 1.1 1.5 1.8 2.1 0.9 0.9 1.9 1.7 2.9 2.5 0.4 0.3 0.7 0.7 1.2 1h0.1c0.1 0.1 0.3 0.2 0.5 0.3 1.3 0.8 2.5 1.5 3.9 2.1 0.5 0.2 0.9 0.4 1.4 0.5 1.1 0.4 2.3 0.8 3.5 1.1 0.5 0.1 1 0.2 1.4 0.3 1.7 0.3 3.3 0.5 5 0.5h837.1c10.5 0 19.5-5.8 24.3-14.3 3.7-3.4 6.1-8.2 6.1-13.7v-579c-0.1-10.2-8.4-18.6-18.7-18.6z" fill="#666" p-id="6942"></path>
</svg>