<svg t="1749329090717" class="icon" viewBox="0 0 1024 1024" version="1.1"
  xmlns="http://www.w3.org/2000/svg" p-id="8996" width="64" height="64">
  <path d="M806.995641 913.193335 217.004359 913.193335c-26.066679 0-47.198975-21.131273-47.198975-47.197952L169.805384 158.00564c0-26.067702 21.132296-47.198975 47.198975-47.198975L698.605002 110.806665l155.589614 165.198459 0 589.990259C854.194616 892.062062 833.06232 913.193335 806.995641 913.193335zM618.198717 264.204357 512 450.051089 405.801283 264.204357l-70.798463 0L464.800002 476.600769 346.801541 476.600769l0 58.997696 129.798205 0 0 58.999742L346.801541 594.598206l0 58.998719 129.796158 0 0 106.199741 70.801533 0L547.399231 653.596925 677.197436 653.596925l0-58.998719L547.400255 594.598206l0-58.999742L677.197436 535.598464l0-58.997696L559.199998 476.600769l129.798205-212.396411L618.198717 264.204357zM700.796924 158.00564l0 94.39795c0 13.033851 10.564613 23.600511 23.599488 23.600511l94.39795 0L700.796924 158.00564z" fill="#666" p-id="8997"></path>
</svg>