<svg t="1749328922428" class="icon" viewBox="0 0 1024 1024" version="1.1"
    xmlns="http://www.w3.org/2000/svg" p-id="3679" width="64" height="64">
    <path d="M512 0c-282.901695 0-512 229.098305-512 512 0 282.901695 229.098305 512 512 512 282.901695 0 512-229.098305 512-512C1024 229.098305 794.901695 0 512 0zM554.522034 256l170.955932 0L725.477966 355.79661 554.522034 355.79661 554.522034 256zM554.522034 383.566102l156.20339 0 0 156.20339L654.318644 539.769492l0-13.884746-12.149153-19.959322-16.488136-7.810169-71.159322-6.074576L554.522034 383.566102zM497.247458 256l28.637288 0 0 232.569492L497.247458 485.966102 497.247458 256zM298.522034 256l170.955932 0L469.477966 355.79661l-156.20339 0-13.884746 0L299.389831 256zM469.477966 383.566102l0 99.79661-2.60339 0-77.233898 57.274576-61.613559 0-13.884746 0 0-156.20339L469.477966 384.433898zM625.681356 696.840678l-42.522034 13.884746-154.467797-4.338983-35.579661 26.033898-46.861017 34.711864c0 0-35.579661-13.016949-62.481356-42.522034-26.033898-28.637288-42.522034-74.630508-42.522034-74.630508l85.044068-39.050847 71.159322-42.522034 71.159322-57.274576 163.145763 15.620339-8.677966 40.786441-112.813559 6.074576 34.711864 38.183051 71.159322 0 117.152542-59.877966 48.59661 15.620339L625.681356 696.840678z" fill="#666" p-id="3680"></path>
</svg>