<svg t="1753758751140" class="icon" viewBox="0 0 1024 1024" version="1.1" xmlns="http://www.w3.org/2000/svg" p-id="8975" width="64" height="64"><path d="M844 65H182c-46.4 0-84 37.6-84 84v107.5h830V149c0-46.4-37.6-84-84-84zM98 873c0 46.4 37.6 84 84 84h662c46.4 0 84-37.6 84-84V292.5H98V873z m238-299.9c7-7 18.4-7 25.5 0L493 704.6c2.3 2.3 6.1 2.3 8.5 0l229.1-229.1c7-7 18.4-7 25.5 0s7 18.4 0 25.5L526.9 730c-8.2 8.2-18.9 12.3-29.7 12.3s-21.5-4.1-29.7-12.3L336 598.5c-7-7-7-18.4 0-25.4z" p-id="8976" fill="#e1a62b"></path></svg>