<svg t="1753758708241" class="icon" viewBox="0 0 1024 1024" version="1.1" xmlns="http://www.w3.org/2000/svg" p-id="7918" width="64" height="64"><path d="M816 64a48 48 0 0 1 47.776 43.392L864 112V448a32 32 0 0 1-63.776 3.744L800 448V128H224v768h288a32 32 0 0 1 31.776 28.256L544 928a32 32 0 0 1-28.256 31.776L512 960H208a48 48 0 0 1-47.776-43.392L160 912v-800a48 48 0 0 1 43.392-47.776L208 64h608z m-64 480a208 208 0 1 1 0 416 208 208 0 0 1 0-416z m0 64a144 144 0 1 0 0 288 144 144 0 0 0 0-288z m92.064 75.616a32 32 0 0 1 0 45.248l-90.496 90.528-1.12 0.96-1.92 2.176a32 32 0 0 1-42.24 2.656l-3.008-2.656-45.248-45.28a32 32 0 0 1 42.24-47.904l3.008 2.656 22.56 22.56 70.976-70.944a32 32 0 0 1 45.248 0zM448 704a32 32 0 0 1 0 64h-128a32 32 0 0 1 0-64h128z m64-160a32 32 0 0 1 0 64h-192a32 32 0 0 1 0-64h192z m192-160a32 32 0 0 1 0 64H320a32 32 0 0 1 0-64h384z m0-160a32 32 0 0 1 0 64H320a32 32 0 1 1 0-64h384z" fill="#e1a62b" p-id="7919"></path></svg>