<svg t="1753758331933" class="icon" viewBox="0 0 1024 1024" version="1.1" xmlns="http://www.w3.org/2000/svg" p-id="5007" width="64" height="64"><path d="M853.333333 1024H170.666667c-46.933333 0-85.333333-38.4-85.333334-85.333333L42.666667 85.333333c0-46.933333 38.4-85.333333 85.333333-85.333333h768c46.933333 0 85.333333 38.4 85.333333 85.333333l-42.666666 853.333334c0 46.933333-38.4 85.333333-85.333334 85.333333z m-243.2-443.733333l-85.333333 153.6 85.333333 153.6v-68.266667H682.666667c29.866667 0 59.733333-17.066667 72.533333-42.666667l85.333333-145.066666c17.066667-29.866667 17.066667-64-4.266666-89.6l-59.733334-106.666667-145.066666 85.333333 76.8 128h-93.866667l-4.266667-68.266666zM170.666667 448l59.733333 34.133333-34.133333 59.733334c-17.066667 25.6-17.066667 59.733333-4.266667 89.6l85.333333 145.066666c17.066667 25.6 42.666667 42.666667 72.533334 42.666667h123.733333v-170.666667H328.533333l46.933334-81.066666 59.733333 34.133333-89.6-149.333333-174.933333-4.266667zM418.133333 213.333333C384 213.333333 354.133333 230.4 341.333333 260.266667L281.6 366.933333l145.066667 85.333334 72.533333-128 46.933333 81.066666-59.733333 34.133334 174.933333-4.266667 89.6-149.333333-59.733333 34.133333-34.133333-59.733333c-12.8-29.866667-42.666667-46.933333-76.8-46.933334H418.133333z" p-id="5008" fill="#e1a62b"></path></svg>